{
	"asset":{
		"generator":"Khronos glTF Blender I/O v4.1.62",
		"version":"2.0"
	},
	"scene":0,
	"scenes":[
		{
			"name":"Scene",
			"nodes":[
				0
			]
		}
	],
	"nodes":[
		{
			"mesh":0,
			"name":"Planeta",
			"scale":[
				2.6553423404693604,
				4.609445095062256,
				4.120865821838379
			]
		}
	],
	"materials":[
		{
			"doubleSided":true,
			"name":"Material.001",
			"pbrMetallicRoughness":{
				"baseColorFactor":[
					0.009839299134910107,
					0.13176481425762177,
					0.8005914688110352,
					1
				],
				"metallicFactor":0,
				"roughnessFactor":0.5
			}
		}
	],
	"meshes":[
		{
			"name":"Planeta",
			"primitives":[
				{
					"attributes":{
						"POSITION":0,
						"NORMAL":1,
						"TEXCOORD_0":2
					},
					"indices":3,
					"material":0
				}
			]
		}
	],
	"accessors":[
		{
			"bufferView":0,
			"componentType":5126,
			"count":4847,
			"max":[
				1.5566951036453247,
				0.10999999195337296,
				0.062023378908634186
			],
			"min":[
				-1.558455467224121,
				-0.10999999195337296,
				-0.5782583355903625
			],
			"type":"VEC3"
		},
		{
			"bufferView":1,
			"componentType":5126,
			"count":4847,
			"type":"VEC3"
		},
		{
			"bufferView":2,
			"componentType":5126,
			"count":4847,
			"type":"VEC2"
		},
		{
			"bufferView":3,
			"componentType":5123,
			"count":22596,
			"type":"SCALAR"
		}
	],
	"bufferViews":[
		{
			"buffer":0,
			"byteLength":58164,
			"byteOffset":0,
			"target":34962
		},
		{
			"buffer":0,
			"byteLength":58164,
			"byteOffset":58164,
			"target":34962
		},
		{
			"buffer":0,
			"byteLength":38776,
			"byteOffset":116328,
			"target":34962
		},
		{
			"buffer":0,
			"byteLength":45192,
			"byteOffset":155104,
			"target":34963
		}
	],
	"buffers":[
		{
			"byteLength":200296,
			"uri":"aquaplanet.bin"
		}
	]
}
