{
	"asset":{
		"generator":"Khronos glTF Blender I/O v4.1.62",
		"version":"2.0"
	},
	"scene":0,
	"scenes":[
		{
			"name":"Scene",
			"nodes":[
				0
			]
		}
	],
	"nodes":[
		{
			"mesh":0,
			"name":"Planeta",
			"scale":[
				2.6553423404693604,
				4.609445095062256,
				4.120865821838379
			]
		}
	],
	"materials":[
		{
			"doubleSided":true,
			"name":"Material.001",
			"pbrMetallicRoughness":{
				"baseColorFactor":[
					0.8012436628341675,
					0.18452799320220947,
					0,
					1
				],
				"metallicFactor":0,
				"roughnessFactor":0.5
			}
		}
	],
	"meshes":[
		{
			"name":"Planeta",
			"primitives":[
				{
					"attributes":{
						"POSITION":0,
						"NORMAL":1,
						"TEXCOORD_0":2
					},
					"indices":3,
					"material":0
				}
			]
		}
	],
	"accessors":[
		{
			"bufferView":0,
			"componentType":5126,
			"count":3881,
			"max":[
				1.4358408451080322,
				0.10999999195337296,
				0.028465881943702698
			],
			"min":[
				-1.412630558013916,
				-0.10999999195337296,
				-0.5702517628669739
			],
			"type":"VEC3"
		},
		{
			"bufferView":1,
			"componentType":5126,
			"count":3881,
			"type":"VEC3"
		},
		{
			"bufferView":2,
			"componentType":5126,
			"count":3881,
			"type":"VEC2"
		},
		{
			"bufferView":3,
			"componentType":5123,
			"count":18012,
			"type":"SCALAR"
		}
	],
	"bufferViews":[
		{
			"buffer":0,
			"byteLength":46572,
			"byteOffset":0,
			"target":34962
		},
		{
			"buffer":0,
			"byteLength":46572,
			"byteOffset":46572,
			"target":34962
		},
		{
			"buffer":0,
			"byteLength":31048,
			"byteOffset":93144,
			"target":34962
		},
		{
			"buffer":0,
			"byteLength":36024,
			"byteOffset":124192,
			"target":34963
		}
	],
	"buffers":[
		{
			"byteLength":160216,
			"uri":"fireplanet.bin"
		}
	]
}
